<?xml version="1.0" encoding="UTF-8" standalone="no"?>
<svg
   version="1.2"
   viewBox="0 0 713 697"
   width="713"
   height="697"
   id="svg1"
   sodipodi:docname="logo.svg"
   inkscape:version="1.4.2 (f4327f4, 2025-05-13)"
   xmlns:inkscape="http://www.inkscape.org/namespaces/inkscape"
   xmlns:sodipodi="http://sodipodi.sourceforge.net/DTD/sodipodi-0.dtd"
   xmlns="http://www.w3.org/2000/svg"
   xmlns:svg="http://www.w3.org/2000/svg">
  <defs
     id="defs1" />
  <sodipodi:namedview
     id="namedview1"
     pagecolor="#505050"
     bordercolor="#ffffff"
     borderopacity="1"
     inkscape:showpageshadow="0"
     inkscape:pageopacity="0"
     inkscape:pagecheckerboard="1"
     inkscape:deskcolor="#505050"
     inkscape:zoom="0.57890961"
     inkscape:cx="148.55514"
     inkscape:cy="230.60595"
     inkscape:window-width="1920"
     inkscape:window-height="1009"
     inkscape:window-x="760"
     inkscape:window-y="282"
     inkscape:window-maximized="1"
     inkscape:current-layer="svg1" />
  <style
     id="style1">
		.s0 { fill: #fefefd } 
		.s1 { fill: #89c6a7 } 
		.s2 { fill: #f1a1c0 } 
	</style>
  <path
     id="Path 1"
     class="s1"
     d="m 450.5,190.07 c -65.15349,6.37135 -128.50848,28.26365 -185,61.04 16.51083,-1.91711 34.39958,-11.168 51.83604,-14.48186 57.33135,-14.40275 123.61474,-15.90708 173.94021,19.48764 38.59102,26.21766 59.90249,73.97606 56.07696,120.1674 -1.84667,55.27613 -35.63794,105.2168 -79.55946,136.93432 -42.70661,32.06404 -94.27062,48.43169 -145.29375,61.7025 13.90156,3.1335 33.11834,-5.53706 48.66953,-8.28143 76.24215,-20.83281 147.5819,-59.28507 208.19484,-109.83779 39.85201,-35.26754 77.15252,-82.09046 78.4253,-137.71617 1.77283,-48.41692 -33.5926,-90.96759 -76.50891,-109.47672 C 540.74733,190.32265 494.6943,187.01165 450.5,190.07 Z" />
  <path
     id="Path 2"
     class="s2"
     d="m 226.5,109.59 c -56.19283,3.87129 -115.80164,18.03343 -156.93,59.01 -36.277654,34.56229 -45.355952,90.75453 -28.35,136.9 20.456519,55.71016 66.44157,98.67295 117.58273,126.76793 57.3566,30.98037 121.74224,49.34622 186.79248,53.4099 46.37954,2.72654 98.05847,-8.1465 129.01745,-45.42517 24.71156,-35.58341 18.89633,-88.02477 -12.72379,-117.6595 -47.62159,-47.81213 -124.72292,-58.71334 -186.54153,-34.85254 -34.03673,14.09841 -59.41688,49.71974 -55.79011,87.29137 -0.27987,28.41891 15.82883,54.16 34.55777,74.35824 -13.19492,-0.67299 -32.55672,-17.09 -45.77625,-27.04992 -41.81415,-33.04451 -68.5067,-86.61337 -61.81523,-140.41355 7.1008,-62.68345 53.73169,-117.12173 112.34617,-138.63332 29.2981,-10.93311 60.06767,-14.51588 90.81832,-12.95651 73.83744,3.74432 105.69356,24.56067 132.95577,31.92224 -24.1458,-12.97353 -36.42093,-19.34118 -76.53306,-31.49832 -25.85981,-7.83756 -52.35761,-13.53426 -79.27041,-16.63898 C 293.62945,109.3194 259.98297,109.18785 226.5,109.59 Z"
     sodipodi:nodetypes="cccccccccccccscscc" />
</svg>
