<svg xmlns="http://www.w3.org/2000/svg" viewBox="0 0 32 32" role="img" aria-label="WhatsApp"><path fill="#25D366" d="M16 3a13 13 0 0 0-11 19.87L4 29l6.29-1.65A13 13 0 1 0 16 3Z"/><path fill="#fff" d="M23.26 20.22c-.36.99-1.78 1.84-2.75 1.95-.7.08-1.6.14-4.65-.99-3.91-1.53-6.43-5.28-6.63-5.52-.19-.24-1.58-2.1-1.58-4.02s1-2.85 1.36-3.24c.36-.39.79-.49 1.05-.49.26 0 .52 0 .74.01.24 0 .56-.09.88.67.33.79 1.12 2.73 1.22 2.93.1.2.17.44.03.68-.13.24-.2.39-.4.6-.19.2-.41.45-.17.87.24.39 1.09 1.79 2.34 2.9 1.61 1.44 2.96 1.89 3.36 2.08.4.2.62.17.86-.1.24-.26.99-1.15 1.26-1.55.26-.39.53-.33.88-.2.36.13 2.32 1.09 2.72 1.28.39.2.66.29.75.45.1.17.1.97-.26 1.96Z"/></svg>
