<svg width="200" height="60" viewBox="0 0 200 60" fill="none" xmlns="http://www.w3.org/2000/svg">
  <!-- Versão para fundo escuro (footer) -->
  <!-- Ícone de dente estilizado -->
  <g transform="translate(10, 10)">
    <path d="M20 5C15 5 12 8 10 12C8 8 5 5 0 5C-3 5 -5 7 -5 10C-5 15 -3 20 0 25C3 30 8 35 10 38C12 35 17 30 20 25C23 20 25 15 25 10C25 7 23 5 20 5Z" 
          fill="#06B6D4" 
          transform="translate(10, 5)"/>
    <circle cx="13" cy="18" r="1.5" fill="white"/>
    <circle cx="17" cy="18" r="1.5" fill="white"/>
    <path d="M10 22C10 22 12 24 15 24C18 24 20 22 20 22" 
          stroke="white" 
          stroke-width="1.5" 
          stroke-linecap="round"/>
  </g>
  
  <!-- Texto -->
  <text x="50" y="28" font-family="Space Grotesk, sans-serif" font-size="18" font-weight="700" fill="#FFFFFF">
    Sorrir Bem
  </text>
  <text x="50" y="45" font-family="Inter, sans-serif" font-size="11" font-weight="500" fill="#D1D5DB">
    ODONTOLOGIA
  </text>
</svg>
